<svg xmlns="http://www.w3.org/2000/svg" viewBox="0 0 384 512" id="icon"><!--!Font Awesome Pro 6.6.0 by @fontawesome - https://fontawesome.com License - https://fontawesome.com/license (Commercial License) Copyright 2024 Fonticons, Inc.--><path class="fa-secondary" opacity=".4" d="M24 32h336a23.9 23.9 0 0 1 24 24v16a23.9 23.9 0 0 1 -24 24H24A23.9 23.9 0 0 1 0 72V56a23.9 23.9 0 0 1 24-24z"/><path class="fa-primary" d="M56.1 321.5l-17.1-17a23.9 23.9 0 0 1 0-33.9L175 135.1a24 24 0 0 1 34 0l135.9 135.5a23.9 23.9 0 0 1 0 33.9l-17.1 17a24 24 0 0 1 -34 0l-65.8-65.6V456A24 24 0 0 1 204 480h-24.1a24 24 0 0 1 -24.1-24V255.9L90 321.5a23.9 23.9 0 0 1 -33.9 0z"/></svg>