<svg xmlns="http://www.w3.org/2000/svg" viewBox="0 0 576 512"><!--!Font Awesome Pro 6.6.0 by @fontawesome - https://fontawesome.com License - https://fontawesome.com/license (Commercial License) Copyright 2024 Fonticons, Inc.--><path d="M564.9 196.4L388.9 12.4C364.2-13.5 320 3.7 320 40v88.2C154.5 130.2 0 160.1 0 331.2c0 95 55.8 150.2 89.1 174.6 24.2 17.7 58-5 49.7-34.5C100.9 336.9 165.6 322 320 320.2V408c0 36.2 44.2 53.5 68.9 27.7l176-184c14.8-15.5 14.8-39.8 0-55.3zm-23.1 33.2l-176 184c-4.9 5.2-13.8 1.7-13.8-5.5V288c-171.4 0-295.3 9.7-244 191.7C72 453.4 32 405.6 32 331.2 32 171.2 194.9 160 352 160V40c0-7.3 8.9-10.7 13.8-5.5l176 184a8 8 0 0 1 0 11.1z"/></svg>